# xmcd
#
# Track frame offsets: 
#        150
#        20327
#        47431
#        69087
#        107339
#        136712
#        153200
#        171021
#        191145
#        214773
#
# Disc length: 3144 seconds
#
# Revision: 0
# Processed by: cddbd v1.5.2PL0 Copyright (c) Steve Scherf et al.
# Submitted via: ExactAudioCopy v1.0b3
#
DISCID=730c460a
DTITLE=Various Artist - Contemporary Blues Interpret Bob Dylan
DYEAR=2008
DGENRE=Blues
TTITLE0=Taj Mahal - It Takes A Lot To Laugh (It Takes A Train To Cry)
TTITLE1=Mavis Staples - Gotta Serve Somebody
TTITLE2=Luther Johnson - Pledging My Time
TTITLE3=James Solberg - Ballad Of A Thin Man
TTITLE4=Alvin Youngblood Hart - Million Miles
TTITLE5=Leon Russell - Watching The River Flow
TTITLE6=The Holmes Brothers - Wallflower
TTITLE7=Larry McCray - All Along The Watchtower
TTITLE8=The Band - One Too Many Mornings
TTITLE9=Susan Tedeschi - Don't Think Twice, It's Alright
EXTD=
EXTT0=
EXTT1=
EXTT2=
EXTT3=
EXTT4=
EXTT5=
EXTT6=
EXTT7=
EXTT8=
EXTT9=
PLAYORDER=
